<svg xmlns="http://www.w3.org/2000/svg" version="1.1" xmlns:xlink="http://www.w3.org/1999/xlink" width="2000" height="2000" viewBox="0 0 2000 2000"><svg xml:space="preserve" width="1500" height="1500" data-version="2" data-id="lg_b5zFgCalBa348RMDSS" viewBox="0 0 816 791" x="250" y="250">
    <rect width="190.923" height="464.402" x="-95.462" y="-232.201" fill="#FDCA5A" stroke="#111" stroke-width="2" rx="127" ry="127" transform="matrix(-1.0304 -1.5276 1.5276 -1.0304 408 395.5)"></rect>
    <path d="m289.155 603.727 8.228 30.55a31.256 31.256 0 0 0 22.038 22.038l30.55 8.228-30.55 8.227a31.256 31.256 0 0 0-22.038 22.038l-8.228 30.55-8.227-30.55a31.256 31.256 0 0 0-22.038-22.038l-30.545-8.233 30.551-8.228a31.256 31.256 0 0 0 22.038-22.038zm-96.058-27.637 5.983 22.217a22.73 22.73 0 0 0 16.025 16.025l22.216 5.983-22.216 5.983a22.73 22.73 0 0 0-16.025 16.025l-5.983 22.216-5.983-22.216a22.73 22.73 0 0 0-16.025-16.025l-22.212-5.987 22.216-5.983a22.73 22.73 0 0 0 16.025-16.026zM747.333 96.912l8.228 30.55a31.256 31.256 0 0 0 22.037 22.038l30.551 8.228-30.55 8.227a31.256 31.256 0 0 0-22.038 22.038l-8.228 30.55-8.227-30.55a31.256 31.256 0 0 0-22.038-22.038l-30.545-8.233 30.551-8.228a31.256 31.256 0 0 0 22.038-22.038z"></path>
</svg></svg>