<!-- Theater Marquee SVG -->
					<svg width="200" height="100" viewBox="0 0 200 100" class="h-20 w-auto">
						<!-- Marquee Background -->
						<rect x="10" y="10" width="180" height="80" rx="8" fill="#000000" stroke="#333333" stroke-width="2"/>
						
						<!-- Marquee Border Lights -->
						<circle cx="20" cy="20" r="3" fill="#ffffff"/>
						<circle cx="35" cy="20" r="3" fill="#ffffff"/>
						<circle cx="50" cy="20" r="3" fill="#ffffff"/>
						<circle cx="65" cy="20" r="3" fill="#ffffff"/>
						<circle cx="80" cy="20" r="3" fill="#ffffff"/>
						<circle cx="100" cy="20" r="3" fill="#ffffff"/>
						<circle cx="115" cy="20" r="3" fill="#ffffff"/>
						<circle cx="130" cy="20" r="3" fill="#ffffff"/>
						<circle cx="145" cy="20" r="3" fill="#ffffff"/>
						<circle cx="160" cy="20" r="3" fill="#ffffff"/>
						<circle cx="175" cy="20" r="3" fill="#ffffff"/>
						
						<circle cx="20" cy="80" r="3" fill="#ffffff"/>
						<circle cx="35" cy="80" r="3" fill="#ffffff"/>
						<circle cx="50" cy="80" r="3" fill="#ffffff"/>
						<circle cx="65" cy="80" r="3" fill="#ffffff"/>
						<circle cx="80" cy="80" r="3" fill="#ffffff"/>
						<circle cx="100" cy="80" r="3" fill="#ffffff"/>
						<circle cx="115" cy="80" r="3" fill="#ffffff"/>
						<circle cx="130" cy="80" r="3" fill="#ffffff"/>
						<circle cx="145" cy="80" r="3" fill="#ffffff"/>
						<circle cx="160" cy="80" r="3" fill="#ffffff"/>
						<circle cx="175" cy="80" r="3" fill="#ffffff"/>
						
						<!-- Side Lights -->
						<circle cx="20" cy="35" r="3" fill="#ffffff"/>
						<circle cx="20" cy="50" r="3" fill="#ffffff"/>
						<circle cx="20" cy="65" r="3" fill="#ffffff"/>
						<circle cx="175" cy="35" r="3" fill="#ffffff"/>
						<circle cx="175" cy="50" r="3" fill="#ffffff"/>
						<circle cx="175" cy="65" r="3" fill="#ffffff"/>
						
						<!-- Text -->
						<text x="100" y="42" text-anchor="middle" fill="#ffffff" font-family="sans-serif" font-size="22" font-weight="bold">PLAYING AT:</text>
						<text x="100" y="68" text-anchor="middle" fill="#ffffff" font-family="sans-serif" font-size="22" font-weight="bold">THE TRAP</text>
					</svg>